<svg xmlns="http://www.w3.org/2000/svg" fill="none" width="47" height="64"><defs><linearGradient x1=".5" y1="0" x2=".5" y2="1" id="b"><stop offset="0%" stop-color="#FFDB94"/><stop offset="100%" stop-color="#FFF"/></linearGradient><clipPath id="a"><rect width="47" height="64" rx="0"/></clipPath></defs><g fill-rule="evenodd" clip-path="url(#a)"><path d="M36.133 0H47v64H1c2.777 0 4.23-.006 5.418-.254a12.012 12.012 0 0 0 8.879-7.831c.395-1.148.582-2.588.93-5.343l4.68-37.144c.347-2.755.534-4.195.93-5.343a12.012 12.012 0 0 1 8.879-7.83C31.904.004 33.356 0 36.133 0" fill="url(#b)"/><path d="M36.133 0H47v64H1c2.777 0 4.23-.006 5.418-.254a12.012 12.012 0 0 0 8.879-7.831c.395-1.148.582-2.588.93-5.343l4.68-37.144c.347-2.755.534-4.195.93-5.343a12.012 12.012 0 0 1 8.879-7.83C31.904.004 33.356 0 36.133 0" fill="#FFF"/></g></svg>