<svg xmlns="http://www.w3.org/2000/svg" fill="none" width="47" height="64"><defs><linearGradient x1=".5" y1="0" x2=".5" y2="1" id="b"><stop offset="0%" stop-color="#FFDB94"/><stop offset="100%" stop-color="#FFF"/></linearGradient><clipPath id="a"><rect x="47" width="47" height="64" rx="0"/></clipPath></defs><g transform="matrix(-1 0 0 1 94 0)" clip-path="url(#a)"><g fill-rule="evenodd"><path d="M83.133 0H94v64H48c2.777 0 4.23-.006 5.418-.254a12.012 12.012 0 0 0 8.879-7.831c.395-1.148.583-2.588.93-5.343l4.68-37.144c.347-2.755.534-4.195.93-5.343a12.012 12.012 0 0 1 8.879-7.83C78.904.004 80.356 0 83.133 0" fill="url(#b)"/><path d="M83.133 0H94v64H48c2.777 0 4.23-.006 5.418-.254a12.012 12.012 0 0 0 8.879-7.831c.395-1.148.583-2.588.93-5.343l4.68-37.144c.347-2.755.534-4.195.93-5.343a12.012 12.012 0 0 1 8.879-7.83C78.904.004 80.356 0 83.133 0" fill="#FFF"/></g></g></svg>